<?xml version="1.0" encoding="utf-8"?>
<svg xmlns="http://www.w3.org/2000/svg" viewBox="0 0 200.0002 29.9999" width="200px" height="29.9999px" preserveAspectRatio="none"><g fill="#fff" transform="matrix(0.12159001082181932, 0, 0, 0.09259200096130371, -4.2556409835815145, -3.611020088195801)" style="" id="object-0"><path d="M35 201v162h52 52V251.2l.9-118c1.9-12.7 7.9-20.1 17-21 5.8-.5 11.8 2.2 15.1 6.8 5.1 7.2 5 4 5 128.2V363h52 52V251.2l1-118.5c1.9-12.8 7.7-19.7 17.3-20.4 7.3-.5 12.2 2.5 16.2 9.7l3 5.5.3 117.7.2 117.8h52 52l-.2-151.3-.3-151.2-2.2-4.7c-3.1-6.6-9-12.2-15.4-14.4-5.1-1.8-9.7-1.9-78.9-1.9h-73.5l-5.8 2.3c-3.4 1.4-8.1 4.5-11.5 7.7l-5.7 5.3-5.2-4.8c-5.8-5.4-12.2-8.7-19.5-10-3-.6-39-1-87.4-1H35v162z"/><path d="M460 201v162h52 52V201 39h-52-52v162z"/><path d="M607 201v162h116.8c128.3 0 123.7.2 132.7-6 3.2-2.2 5.3-4.8 7.7-9.7l3.3-6.8V201 61.5l-3.3-6.8c-2.4-4.9-4.5-7.5-7.7-9.7-9-6.2-4.4-6-132.7-6H607v162zm138.9-88.4c6.6 1.9 12.7 7.3 15.7 13.9l2.4 5v69.1c0 49.8-.3 70.1-1.2 72.5-2 6.1-6.4 11.4-12 14.4-5.2 3-5.6 3-22.5 3.3l-17.3.4v-90.1V111h14.8c10.5 0 16.4.5 20.1 1.6z"/><path d="M460 201v162h52 52V201 39h-52-52v162z" transform="matrix(1, 0, 0, 1, 444, 0)"/><path d="M1051 201v162h52 52l.2-59.3.3-59.2 44.8-.3 44.7-.2v-43-43h-45-45v-7.5-7.5h45 45V91 39h-97-97v162z"/><path d="M460 201v162h52 52V201 39h-52-52v162z" transform="matrix(1, 0, 0, 1, 828, 0)"/><path d="M1451.7 40.1c-9.6 2.3-17.2 9-20.3 18-1.8 5.2-1.9 11-1.9 142.9l1.9 142.9c2.4 6.9 8.2 13.2 14.9 16.2l5.2 2.4h103 103l5.7-2.8c6.9-3.4 10.9-7.7 13.9-15.4l2.4-5.8.3-60.3c.2-47.5 0-60.2-.9-60.2-.7 0-22.6 8.4-48.6 18.7l-47.3 18.6v16.6c0 15.4-.2 17-2.4 21.6-4.5 9.5-12.6 14.4-23.6 14.5-11.3 0-19.5-5.3-24.2-15.5l-2.3-5V206v-81.5l2.4-5.2c6-13.4 21.4-19.3 34.8-13.3 10.5 4.6 14.5 11.2 15.1 25.1l.4 9.5 47.4 23.7 48.5 23.7c.7 0 .9-19.4.7-62.3l-.3-62.2-2.4-5.8c-3-7.7-7-12-13.9-15.4l-5.7-2.8-101-.2c-56.9-.1-102.6.3-104.8.8z"/></g></svg>