<?xml version="1.0" standalone="no"?>
<!DOCTYPE svg PUBLIC "-//W3C//DTD SVG 20010904//EN"
 "http://www.w3.org/TR/2001/REC-SVG-20010904/DTD/svg10.dtd">
<svg version="1.0" xmlns="http://www.w3.org/2000/svg"
 width="1000.000000pt" height="1000.000000pt" viewBox="0 0 1000.000000 1000.000000"
 preserveAspectRatio="xMidYMid meet">
<metadata>
Created by potrace 1.14, written by Peter Selinger 2001-2017
</metadata>
<g transform="translate(0.000000,1000.000000) scale(0.100000,-0.100000)"
fill="#000000" stroke="none">
<path d="M509 7378 c-6 -17 -4 -60 4 -65 6 -4 7 -1 2 7 -5 9 -4 11 4 6 9 -6 9
-11 -1 -23 -14 -17 -20 -175 -6 -167 4 3 8 1 8 -5 0 -5 -4 -12 -9 -15 -11 -7
-9 -32 4 -43 4 -4 5 -2 0 6 -6 10 -4 12 4 7 10 -6 9 -12 -2 -24 -15 -19 -18
-215 -3 -229 5 -5 6 -2 1 6 -6 10 -4 12 4 7 9 -6 9 -11 -1 -23 -10 -12 -13
-93 -13 -360 0 -197 4 -347 9 -350 5 -4 6 0 1 7 -5 9 -4 11 4 6 9 -6 9 -11 -1
-23 -13 -16 -19 -135 -7 -127 4 2 10 -3 13 -12 4 -11 2 -15 -7 -11 -9 3 -13
-6 -12 -34 0 -21 5 -42 9 -46 5 -5 6 -2 1 6 -6 10 -4 12 4 7 9 -6 9 -11 -1
-23 -14 -17 -20 -175 -6 -167 4 3 8 1 8 -5 0 -5 -4 -12 -9 -15 -11 -7 -9 -32
4 -43 4 -4 5 -2 0 6 -6 10 -4 12 4 7 9 -6 9 -11 -1 -23 -13 -16 -19 -135 -7
-127 4 2 10 -3 13 -12 4 -11 2 -15 -7 -11 -9 3 -13 -6 -12 -34 0 -21 5 -42 9
-46 5 -5 6 -2 1 6 -6 10 -4 12 4 7 9 -6 9 -11 -1 -23 -14 -17 -20 -175 -6
-167 4 3 8 1 8 -5 0 -5 -4 -12 -9 -15 -11 -7 -9 -32 4 -43 4 -4 5 -2 0 6 -6
10 -4 12 4 7 10 -6 9 -12 -2 -24 -15 -19 -18 -215 -3 -229 5 -5 6 -2 1 6 -6
10 -4 12 4 7 9 -6 9 -11 -1 -23 -10 -12 -13 -93 -13 -360 0 -197 4 -347 9
-350 5 -4 6 0 1 7 -5 9 -4 11 4 6 9 -6 9 -11 -1 -23 -13 -16 -19 -135 -7 -127
4 2 10 -3 13 -12 4 -11 2 -15 -7 -11 -9 3 -13 -6 -12 -34 0 -21 5 -42 9 -46 5
-5 6 -2 1 6 -6 10 -4 12 4 7 9 -6 9 -11 -1 -23 -14 -17 -20 -175 -6 -167 4 3
8 1 8 -5 0 -5 -4 -12 -9 -15 -11 -7 -9 -32 4 -43 4 -4 5 -2 0 6 -6 10 -4 12 4
7 9 -6 9 -11 -1 -23 -13 -16 -19 -135 -7 -127 4 2 10 -3 13 -12 4 -11 2 -15
-7 -11 -9 3 -13 -6 -12 -34 0 -21 5 -42 9 -46 5 -5 6 -2 1 6 -6 10 -4 12 4 7
9 -6 9 -11 -1 -23 -14 -17 -20 -175 -6 -167 4 3 8 1 8 -5 0 -5 -4 -12 -9 -15
-11 -7 -9 -32 4 -43 4 -4 5 -2 0 6 -6 10 -4 12 4 7 10 -6 9 -12 -2 -24 -15
-19 -18 -215 -3 -229 5 -5 6 -2 1 6 -6 10 -4 12 4 7 9 -6 9 -11 -1 -23 -9 -12
-13 -63 -13 -189 l0 -174 765 3 765 2 -3 23 c-2 13 2 31 10 40 7 8 8 13 2 9
-8 -4 -11 14 -12 58 0 44 3 65 11 65 9 0 9 2 0 8 -14 9 -14 144 1 154 8 6 8 8
0 8 -15 0 -16 320 0 339 7 10 7 13 0 8 -8 -4 -11 14 -12 58 0 44 3 65 11 65 9
0 9 2 0 8 -14 9 -14 144 1 154 8 6 8 8 0 8 -15 0 -16 320 0 339 7 10 7 13 0 8
-8 -4 -11 14 -12 58 0 44 3 65 11 65 9 0 9 2 0 8 -14 9 -14 144 1 154 8 6 8 8
0 8 -15 0 -16 320 0 339 7 10 7 13 0 8 -8 -4 -11 14 -12 58 0 44 3 65 11 65 8
0 9 3 1 8 -15 10 -16 322 0 341 7 10 7 13 0 8 -8 -4 -11 14 -12 58 0 44 3 65
11 65 8 0 9 3 1 8 -15 10 -16 322 0 341 7 10 7 13 0 8 -8 -4 -11 14 -12 58 0
44 3 65 11 65 9 0 9 2 1 8 -14 9 -14 200 0 221 6 10 6 12 -2 7 -8 -5 -11 1
-10 18 1 15 5 26 8 26 4 0 7 12 6 28 0 41 15 102 25 102 5 0 8 3 8 8 -4 21 3
40 21 60 12 12 18 22 15 22 -3 0 13 18 36 40 23 22 46 40 51 40 4 0 10 0 13 0
3 0 18 6 33 13 32 16 114 14 157 -4 17 -7 33 -12 38 -11 4 1 7 -5 7 -13 0 -8
6 -15 13 -15 7 0 23 -11 35 -25 12 -14 19 -25 15 -25 -3 0 4 -9 17 -20 13 -11
20 -20 15 -20 -4 0 -2 -7 5 -15 7 -8 9 -15 5 -15 -5 0 -2 -8 7 -17 8 -10 13
-28 12 -40 0 -13 2 -23 6 -23 6 0 10 -45 12 -120 1 -8 4 -20 9 -25 4 -6 4 -17
-1 -25 -13 -21 -12 -33 2 -24 7 4 8 3 4 -5 -13 -21 -16 -60 -6 -66 8 -5 8 -11
0 -20 -8 -9 -8 -15 0 -20 6 -3 8 -11 5 -16 -12 -19 -13 -49 -2 -49 8 0 8 -3 0
-11 -6 -6 -9 -18 -6 -27 5 -11 3 -13 -7 -7 -10 6 -11 4 -4 -6 4 -8 9 -25 9
-39 0 -14 4 -31 8 -37 5 -7 4 -13 -2 -13 -6 0 -7 -7 -4 -17 5 -12 3 -14 -8 -9
-8 4 -5 0 5 -8 11 -9 15 -16 9 -16 -6 0 -10 -11 -9 -25 0 -14 5 -25 11 -25 5
0 4 -5 -2 -11 -6 -6 -9 -18 -6 -27 5 -11 3 -13 -7 -7 -10 6 -11 4 -4 -6 4 -8
9 -25 9 -39 0 -14 4 -31 8 -37 5 -7 4 -13 -2 -13 -6 0 -7 -7 -4 -17 5 -12 3
-14 -8 -9 -8 4 -5 0 5 -8 11 -9 15 -16 9 -16 -6 0 -10 -11 -9 -25 0 -14 5 -25
11 -25 5 0 4 -5 -2 -11 -6 -6 -9 -18 -6 -27 5 -11 3 -13 -7 -7 -10 6 -11 4 -4
-6 4 -8 9 -25 9 -39 0 -14 4 -31 8 -37 5 -7 4 -13 -2 -13 -6 0 -7 -7 -4 -17 5
-12 3 -14 -8 -9 -8 4 -5 0 5 -8 11 -9 15 -16 9 -16 -6 0 -10 -11 -9 -25 0 -14
5 -25 10 -25 6 0 5 -5 -1 -11 -6 -6 -9 -18 -6 -27 5 -11 3 -13 -8 -7 -11 7
-12 6 -3 -6 6 -8 10 -23 8 -33 -1 -11 2 -28 8 -39 5 -11 6 -17 1 -14 -5 3 -9
-17 -9 -44 0 -27 4 -49 8 -49 5 0 6 -6 1 -12 -11 -19 -11 -92 1 -100 8 -5 8
-8 1 -8 -13 0 -12 -80 0 -100 5 -8 4 -11 -1 -7 -6 3 -10 -16 -10 -44 0 -27 4
-49 8 -49 5 0 6 -6 1 -12 -11 -19 -11 -92 1 -100 8 -5 8 -8 1 -8 -13 0 -12
-80 0 -100 5 -8 4 -11 -1 -7 -6 3 -10 -16 -10 -44 0 -27 4 -49 8 -49 5 0 6 -6
1 -12 -11 -19 -11 -92 1 -100 8 -5 8 -8 1 -8 -13 0 -12 -80 0 -100 5 -8 4 -11
-1 -7 -6 3 -10 -16 -10 -44 0 -27 4 -49 8 -49 5 0 6 -6 1 -12 -11 -19 -11 -92
1 -100 8 -5 8 -8 1 -8 -13 0 -12 -80 0 -100 5 -8 4 -11 -1 -7 -6 3 -10 -16
-10 -44 0 -27 4 -49 8 -49 5 0 6 -6 1 -12 -11 -19 -11 -92 1 -100 8 -5 8 -8 1
-8 -13 0 -12 -80 0 -100 5 -8 4 -11 -1 -7 -6 3 -10 -16 -10 -44 0 -27 4 -49 8
-49 5 0 6 -6 1 -12 -11 -19 -11 -92 1 -100 8 -5 8 -8 1 -8 -13 0 -12 -80 0
-100 5 -8 4 -11 -1 -7 -6 3 -10 -16 -10 -44 0 -27 4 -49 8 -49 5 0 6 -6 1 -12
-12 -20 -11 -98 1 -98 7 0 7 -3 1 -8 -5 -4 -10 -22 -10 -40 l0 -32 760 2 760
3 -2 37 c-1 20 2 40 7 43 6 4 5 13 -2 25 -9 14 -9 22 3 36 8 10 9 15 3 11 -13
-8 -15 156 -1 169 4 4 7 12 7 18 0 6 -4 5 -9 -2 -4 -8 -8 90 -7 221 1 130 4
238 8 242 4 4 2 15 -4 25 -9 14 -8 22 3 36 8 10 9 15 3 11 -9 -5 -11 16 -10
77 0 47 4 87 8 91 4 4 2 15 -4 25 -9 14 -8 22 3 36 8 10 9 15 3 11 -13 -8 -15
156 -2 169 5 4 8 12 8 18 0 6 -4 5 -9 -2 -4 -8 -8 90 -7 221 1 130 4 238 8
242 4 4 2 15 -4 25 -9 14 -8 22 3 36 8 10 9 15 3 11 -9 -5 -11 16 -10 77 0 47
4 87 8 91 4 4 2 15 -4 25 -9 14 -8 22 3 36 8 10 9 15 3 11 -13 -8 -15 156 -1
169 4 4 7 12 7 18 0 6 -4 5 -9 -2 -4 -8 -8 90 -7 221 1 130 4 238 8 242 4 4 2
15 -4 25 -9 14 -8 22 3 36 8 10 9 15 3 11 -9 -5 -11 16 -10 77 0 47 4 87 8 91
4 4 2 15 -4 25 -9 14 -8 22 3 36 8 10 9 15 3 11 -13 -8 -15 156 -1 169 4 4 7
12 7 18 0 6 -4 5 -9 -3 -5 -8 -8 14 -8 58 1 39 6 71 10 71 5 0 4 6 -2 14 -8 9
-8 16 -2 20 5 4 8 15 6 26 -2 11 -1 20 3 20 4 0 8 11 8 23 2 30 49 129 57 121
3 -4 9 5 13 20 3 14 10 24 14 21 4 -3 10 2 14 10 3 8 12 15 21 15 8 0 15 4 15
9 0 5 14 12 30 16 17 4 28 10 26 13 -2 4 27 7 65 7 38 0 69 -3 69 -7 0 -5 8
-8 19 -8 10 0 24 -7 31 -15 6 -8 16 -13 20 -12 23 6 129 -151 113 -167 -4 -3
-1 -6 5 -6 6 0 9 -6 6 -14 -3 -8 -1 -17 5 -21 15 -9 14 -28 -1 -19 -10 6 -10
4 0 -7 6 -7 12 -30 12 -50 0 -21 5 -41 10 -44 8 -5 7 -11 -1 -21 -9 -11 -8
-14 2 -14 9 0 10 -3 4 -8 -14 -9 -14 -75 -1 -84 7 -5 8 -11 1 -15 -15 -11 -17
-33 -5 -47 5 -7 7 -16 3 -20 -12 -12 -12 -36 0 -36 8 0 7 -3 -1 -9 -17 -11
-17 -21 0 -32 7 -5 8 -9 2 -9 -6 0 -11 -7 -11 -15 0 -8 5 -15 11 -15 6 0 5 -4
-2 -9 -17 -11 -17 -21 0 -32 7 -5 8 -9 2 -9 -6 0 -11 -7 -11 -15 0 -8 5 -15
11 -15 6 0 5 -4 -2 -9 -17 -11 -17 -21 0 -32 7 -5 8 -9 2 -9 -6 0 -11 -7 -11
-15 0 -8 5 -15 11 -15 7 0 7 -3 1 -8 -15 -11 -17 -32 -2 -32 9 0 9 -2 -1 -9
-17 -11 -17 -21 0 -32 11 -7 11 -9 -1 -9 -10 0 -11 -3 -2 -13 6 -8 7 -17 3
-21 -10 -11 -9 -30 3 -38 7 -5 7 -11 0 -15 -15 -11 -17 -33 -5 -47 5 -7 6 -16
2 -20 -10 -11 -9 -30 3 -38 7 -5 7 -11 0 -15 -15 -11 -17 -33 -5 -47 5 -7 7
-16 3 -20 -12 -12 -12 -36 0 -36 8 0 7 -3 -1 -9 -17 -11 -17 -21 0 -32 7 -5 8
-9 2 -9 -6 0 -11 -7 -11 -15 0 -8 5 -15 11 -15 7 0 7 -3 1 -8 -15 -11 -17 -32
-2 -32 9 0 9 -2 -1 -9 -8 -4 -14 -12 -14 -16 0 -4 6 -12 14 -16 11 -7 11 -9
-1 -9 -10 0 -11 -3 -2 -13 6 -8 7 -17 3 -21 -10 -11 -9 -30 3 -38 7 -5 7 -11
0 -15 -15 -11 -17 -33 -5 -47 5 -7 6 -16 2 -20 -10 -11 -9 -30 3 -38 7 -5 7
-11 0 -15 -15 -11 -17 -33 -5 -47 5 -7 7 -16 3 -20 -12 -12 -12 -36 0 -36 8 0
7 -3 -2 -9 -9 -6 -10 -10 -2 -16 9 -5 9 -11 -1 -22 -15 -19 -15 -23 4 -34 8
-6 9 -12 3 -16 -15 -11 -17 -33 -5 -47 5 -7 6 -16 2 -20 -10 -11 -9 -30 3 -38
7 -5 7 -11 0 -15 -15 -11 -17 -33 -5 -47 5 -7 6 -16 2 -20 -10 -11 -9 -30 3
-38 7 -5 7 -11 0 -15 -15 -11 -17 -33 -5 -47 5 -7 6 -16 2 -20 -10 -11 -9 -30
3 -38 6 -5 5 -11 -3 -17 -17 -11 -17 -21 0 -32 7 -5 8 -9 3 -9 -14 0 -17 -38
-4 -45 5 -4 6 -12 2 -18 -11 -17 -10 -31 2 -39 7 -6 7 -10 0 -15 -14 -11 -15
-63 -1 -63 6 0 5 -4 -2 -9 -8 -4 -14 -12 -14 -16 0 -4 6 -12 14 -16 7 -5 8 -9
2 -9 -6 0 -11 -7 -11 -15 0 -8 5 -15 11 -15 6 0 5 -4 -2 -9 -8 -4 -14 -12 -14
-16 0 -4 6 -12 14 -16 11 -7 11 -9 -1 -9 -10 0 -11 -3 -2 -13 6 -8 7 -17 3
-21 -10 -11 -9 -30 3 -38 7 -5 7 -11 0 -15 -15 -11 -17 -33 -5 -47 5 -7 6 -16
2 -20 -10 -11 -9 -30 3 -38 7 -5 7 -11 0 -15 -15 -11 -17 -33 -5 -47 5 -7 7
-16 3 -20 -12 -12 -12 -36 0 -36 8 0 7 -3 -1 -9 -17 -11 -17 -21 0 -32 7 -5 8
-9 2 -9 -6 0 -11 -7 -11 -15 0 -8 5 -15 11 -15 7 0 7 -3 1 -8 -15 -11 -17 -32
-2 -32 9 0 9 -2 -1 -9 -17 -11 -17 -21 0 -32 8 -6 9 -12 3 -16 -15 -11 -17
-33 -5 -47 5 -7 6 -16 2 -20 -10 -11 -9 -30 3 -38 6 -5 5 -11 -3 -17 -17 -11
-17 -21 0 -32 7 -5 8 -9 3 -9 -14 0 -17 -38 -4 -46 6 -4 7 -10 0 -17 -14 -18
-14 -29 1 -38 8 -6 9 -12 3 -16 -15 -11 -17 -33 -5 -47 5 -7 6 -16 2 -20 -10
-11 -9 -30 3 -38 7 -5 7 -11 0 -15 -15 -11 -17 -33 -5 -47 5 -7 6 -16 2 -20
-10 -11 -9 -30 3 -38 7 -5 7 -11 0 -15 -15 -11 -17 -33 -5 -47 5 -7 6 -16 2
-20 -10 -11 -9 -30 3 -38 6 -5 5 -8 -3 -8 -7 0 -10 -5 -7 -10 4 -7 270 -10
765 -10 704 0 759 1 753 17 -5 12 -3 14 8 8 11 -7 12 -6 2 6 -14 18 -14 81 0
72 6 -4 7 -1 1 8 -13 20 -12 92 0 101 8 5 8 8 0 8 -12 0 -13 59 -1 77 4 6 3
14 -2 17 -5 4 -9 31 -9 61 1 36 5 52 12 48 7 -4 6 -1 -1 8 -15 18 -15 89 1 89
7 0 7 3 1 8 -15 11 -17 64 -2 55 9 -5 9 -4 0 8 -14 18 -13 91 2 101 7 5 6 8
-1 8 -12 0 -13 58 -2 76 4 6 4 14 0 18 -12 13 -12 127 0 120 7 -5 8 -2 2 7
-14 22 -14 70 -1 62 9 -5 9 -3 0 8 -14 18 -14 81 0 72 6 -4 7 -1 1 8 -13 20
-12 92 0 101 8 5 8 8 0 8 -12 0 -13 59 -1 77 4 6 3 14 -2 17 -5 4 -9 31 -9 61
1 36 5 52 12 48 7 -4 6 -1 -1 8 -15 18 -15 89 1 89 7 0 7 3 1 8 -15 11 -17 64
-2 55 9 -5 9 -4 0 8 -14 18 -13 91 2 101 7 5 6 8 -1 8 -12 0 -13 58 -2 76 4 6
4 14 0 18 -12 13 -12 127 0 120 7 -5 8 -2 2 7 -14 22 -14 70 -1 62 9 -5 9 -3
0 8 -14 18 -14 81 0 72 6 -4 7 -1 1 8 -13 20 -12 92 0 101 8 5 8 8 0 8 -12 0
-13 59 -1 77 4 6 3 14 -2 17 -5 4 -9 31 -9 61 1 36 5 52 12 48 7 -4 6 -1 -1 8
-15 18 -15 89 1 89 7 0 7 3 1 8 -15 11 -17 64 -2 55 9 -5 9 -4 0 8 -14 18 -13
91 2 101 7 5 6 8 -1 8 -12 0 -13 58 -2 76 4 6 4 14 0 18 -12 13 -12 127 0 120
7 -5 8 -2 2 7 -14 22 -14 70 -1 62 9 -5 9 -3 0 8 -14 18 -14 81 0 72 6 -4 7
-1 1 8 -13 20 -12 92 0 101 8 5 8 8 0 8 -12 0 -13 59 -1 77 4 6 3 14 -2 17 -5
4 -9 31 -9 61 1 36 5 52 12 48 7 -4 6 -1 -1 8 -15 18 -15 89 1 89 7 0 7 3 1 8
-15 11 -17 64 -2 55 9 -5 9 -3 1 8 -15 19 -15 161 0 152 7 -4 7 -1 -1 8 -15
18 -15 89 1 89 7 0 7 3 1 8 -15 11 -17 64 -2 55 9 -5 9 -4 0 8 -14 18 -13 91
2 101 7 5 6 8 -1 8 -12 0 -13 58 -2 76 4 6 4 14 0 18 -12 13 -12 127 0 120 7
-5 8 -2 2 7 -14 22 -14 70 -1 62 9 -5 9 -3 1 8 -6 8 -11 54 -12 103 -1 49 -5
92 -9 95 -5 3 -9 17 -10 31 -5 50 -7 60 -14 60 -4 0 -10 13 -14 29 -3 15 -15
38 -26 50 -11 11 -17 21 -13 21 4 0 -3 8 -14 19 -12 10 -22 23 -22 29 0 6 -9
14 -20 17 -11 3 -20 10 -20 14 0 5 -13 14 -30 21 -16 7 -30 17 -30 23 0 6 -3
7 -6 4 -4 -3 -15 -2 -26 4 -24 13 -55 21 -90 23 -16 0 -28 5 -28 10 0 4 -7 6
-15 2 -8 -3 -15 -1 -15 5 0 6 -354 9 -1022 9 -643 -1 -1017 -4 -1008 -10 12
-8 11 -10 -5 -11 -11 -1 -30 0 -42 1 -13 1 -23 -3 -23 -9 0 -5 -8 -8 -18 -6
-23 4 -148 -54 -190 -89 -17 -15 -32 -25 -32 -22 0 3 -17 -13 -37 -36 -21 -24
-42 -47 -48 -53 -7 -7 -23 3 -51 32 -23 24 -38 43 -35 43 7 1 -24 20 -36 23
-5 1 -18 12 -30 26 -13 13 -23 21 -23 17 0 -4 -15 3 -32 16 -18 13 -35 22 -38
22 -3 -1 -16 3 -30 8 -33 13 -60 19 -90 21 -14 1 -28 6 -32 11 -10 14 -39 16
-31 3 5 -8 2 -8 -8 0 -12 10 -279 13 -1217 13 -661 0 -1202 -1 -1203 -2z m14
-343 c4 -8 3 -16 -1 -19 -4 -3 -9 4 -9 15 -2 23 3 25 10 4z m0 -960 c4 -8 3
-16 -1 -19 -4 -3 -9 4 -9 15 -2 23 3 25 10 4z m0 -480 c4 -8 3 -16 -1 -19 -4
-3 -9 4 -9 15 -2 23 3 25 10 4z m0 -480 c4 -8 3 -16 -1 -19 -4 -3 -9 4 -9 15
-2 23 3 25 10 4z m0 -960 c4 -8 3 -16 -1 -19 -4 -3 -9 4 -9 15 -2 23 3 25 10
4z m0 -480 c4 -8 3 -16 -1 -19 -4 -3 -9 4 -9 15 -2 23 3 25 10 4z m0 -480 c4
-8 3 -16 -1 -19 -4 -3 -9 4 -9 15 -2 23 3 25 10 4z"/>
<path d="M6637 7365 c-4 -8 -2 -17 4 -20 6 -4 6 -13 0 -23 -5 -9 -5 -26 0 -39
5 -14 4 -25 -2 -29 -7 -4 -6 -10 1 -19 7 -8 7 -15 1 -19 -10 -7 -9 -25 2 -43
5 -8 4 -13 -2 -13 -13 0 -10 -22 4 -32 6 -5 4 -8 -5 -8 -13 0 -13 -1 0 -10 12
-8 12 -10 1 -10 -11 0 -11 -3 -1 -15 7 -8 9 -15 4 -15 -5 0 -9 -11 -9 -25 0
-14 5 -25 10 -25 6 0 4 -4 -4 -9 -9 -6 -10 -10 -2 -16 9 -5 9 -10 0 -21 -9
-11 -9 -17 1 -29 10 -12 10 -15 -1 -15 -10 0 -10 -3 -1 -12 7 -7 8 -17 2 -29
-7 -11 -7 -20 0 -24 7 -4 6 -13 -1 -27 -8 -15 -8 -19 0 -14 8 5 8 0 2 -17 -6
-16 -6 -28 2 -36 8 -8 8 -11 -2 -11 -9 0 -10 -4 -5 -12 11 -15 11 -38 1 -55
-4 -6 -3 -14 2 -18 6 -3 7 -15 1 -29 -5 -15 -5 -27 3 -35 8 -8 8 -11 -2 -11
-9 0 -10 -4 -5 -12 11 -15 11 -38 1 -55 -4 -6 -3 -14 3 -18 6 -4 7 -12 0 -24
-6 -12 -5 -22 2 -29 9 -9 9 -12 -2 -12 -11 0 -11 -3 -2 -12 7 -7 8 -17 2 -29
-7 -12 -7 -20 0 -24 6 -4 7 -12 1 -23 -5 -9 -5 -26 0 -39 5 -14 4 -25 -2 -29
-7 -4 -6 -10 1 -19 7 -8 7 -15 1 -19 -10 -7 -9 -25 2 -43 5 -8 4 -13 -2 -13
-13 0 -10 -22 4 -32 6 -5 4 -8 -5 -8 -13 0 -13 -1 0 -10 12 -8 12 -10 1 -10
-11 0 -11 -3 -1 -15 7 -8 9 -15 4 -15 -5 0 -9 -11 -9 -25 0 -14 5 -25 10 -25
6 0 4 -4 -4 -9 -9 -6 -10 -10 -2 -16 9 -5 9 -10 0 -21 -9 -11 -9 -17 1 -29 10
-12 10 -15 -1 -15 -10 0 -10 -3 -1 -12 7 -7 8 -17 2 -29 -7 -11 -7 -20 0 -24
7 -4 6 -13 -1 -27 -8 -15 -8 -19 0 -14 8 5 8 0 2 -17 -6 -16 -6 -28 2 -36 8
-8 8 -11 -2 -11 -9 0 -10 -4 -5 -12 11 -15 11 -38 1 -55 -4 -6 -3 -14 2 -18 6
-3 7 -15 1 -29 -5 -15 -5 -27 3 -35 8 -8 8 -11 -2 -11 -9 0 -10 -4 -5 -12 11
-15 11 -38 1 -55 -4 -6 -3 -14 3 -18 6 -4 7 -12 0 -24 -6 -12 -5 -22 2 -29 9
-9 9 -12 -2 -12 -11 0 -11 -3 -2 -12 7 -7 8 -17 2 -29 -7 -12 -7 -20 0 -24 6
-4 7 -12 1 -23 -5 -9 -5 -26 0 -39 5 -14 4 -25 -2 -29 -7 -4 -6 -10 1 -19 7
-8 7 -15 1 -19 -10 -7 -9 -25 2 -43 5 -8 4 -13 -2 -13 -13 0 -10 -22 4 -32 6
-5 4 -8 -5 -8 -13 0 -13 -1 0 -10 12 -8 12 -10 1 -10 -11 0 -11 -3 -1 -15 7
-8 9 -15 4 -15 -5 0 -9 -11 -9 -25 0 -14 5 -25 10 -25 6 0 4 -4 -4 -9 -9 -6
-10 -10 -2 -16 9 -5 9 -10 0 -21 -9 -11 -9 -17 1 -29 10 -12 10 -15 -1 -15
-10 0 -10 -3 -1 -12 7 -7 8 -17 2 -29 -7 -11 -7 -20 0 -24 7 -4 6 -13 -1 -27
-8 -15 -8 -19 0 -14 8 5 8 0 2 -17 -6 -16 -6 -28 2 -36 8 -8 8 -11 -2 -11 -9
0 -10 -4 -5 -12 11 -15 11 -38 1 -55 -4 -6 -3 -14 2 -18 6 -3 7 -15 1 -29 -5
-15 -5 -27 3 -35 8 -8 8 -11 -2 -11 -9 0 -10 -4 -5 -12 11 -15 11 -38 1 -55
-4 -6 -3 -14 3 -18 6 -4 7 -12 0 -24 -6 -12 -5 -22 2 -29 9 -9 9 -12 -2 -12
-11 0 -11 -3 -2 -12 7 -7 8 -17 2 -29 -7 -12 -7 -20 0 -24 6 -4 7 -12 1 -23
-5 -9 -5 -26 0 -39 5 -14 4 -25 -2 -29 -7 -4 -6 -10 1 -19 7 -8 7 -15 1 -19
-10 -7 -9 -25 2 -43 5 -8 4 -13 -2 -13 -13 0 -10 -22 4 -32 6 -5 4 -8 -5 -8
-13 0 -13 -1 0 -10 12 -8 12 -10 1 -10 -11 0 -11 -3 -1 -15 7 -8 9 -15 4 -15
-5 0 -9 -11 -9 -25 0 -14 5 -25 10 -25 6 0 4 -4 -4 -9 -9 -6 -10 -10 -2 -16 9
-5 9 -10 0 -21 -9 -11 -9 -17 1 -29 10 -12 10 -15 -1 -15 -10 0 -10 -3 -1 -12
7 -7 8 -17 2 -29 -7 -11 -7 -20 0 -24 7 -4 6 -13 -1 -27 -8 -15 -8 -19 0 -14
8 5 8 0 2 -17 -6 -16 -6 -28 2 -36 8 -8 8 -11 -2 -11 -9 0 -10 -4 -5 -12 11
-15 11 -38 1 -55 -4 -6 -3 -14 2 -18 6 -3 7 -15 1 -29 -5 -15 -5 -27 3 -35 8
-8 8 -11 -2 -11 -9 0 -10 -4 -5 -12 11 -15 11 -38 1 -55 -4 -6 -3 -14 2 -18 6
-3 7 -15 1 -29 -5 -15 -5 -27 3 -35 8 -8 8 -11 -2 -11 -9 0 -10 -4 -5 -12 11
-15 11 -38 1 -55 -4 -6 -3 -14 2 -18 6 -3 7 -15 1 -29 -5 -15 -5 -27 3 -35 8
-8 8 -11 -2 -11 -9 0 -10 -4 -5 -12 11 -15 11 -38 1 -55 -4 -6 -3 -14 3 -18 6
-4 7 -12 0 -24 -6 -12 -5 -22 2 -29 9 -9 9 -12 -2 -12 -11 0 -11 -3 -2 -12 7
-7 8 -17 2 -29 -7 -12 -7 -20 0 -24 6 -4 7 -12 1 -23 -5 -9 -5 -26 0 -39 5
-14 4 -25 -2 -29 -7 -4 -6 -10 1 -19 7 -8 7 -15 1 -19 -10 -7 -9 -25 2 -43 5
-8 4 -13 -2 -13 -13 0 -10 -22 4 -32 6 -5 4 -8 -5 -8 -13 0 -13 -1 0 -10 12
-8 12 -10 1 -10 -11 0 -11 -3 -1 -15 7 -8 9 -15 4 -15 -5 0 -9 -11 -9 -25 0
-14 5 -25 10 -25 6 0 4 -4 -4 -9 -9 -6 -10 -10 -2 -16 9 -5 9 -10 0 -21 -9
-11 -9 -17 1 -29 10 -12 10 -15 -1 -15 -10 0 -10 -3 -1 -12 7 -7 8 -17 2 -29
-6 -10 -6 -20 -1 -23 9 -6 7 -48 -3 -64 -3 -6 1 -13 10 -16 9 -3 353 -6 764
-6 743 0 749 0 745 20 -2 11 2 20 8 20 8 0 8 3 2 8 -12 8 -13 41 -2 59 4 6 4
14 -1 17 -10 6 -9 96 1 113 4 6 3 14 -1 17 -10 6 -10 46 1 63 4 6 3 14 -1 17
-10 6 -10 46 1 63 4 6 3 14 -1 17 -11 7 -9 46 2 65 7 11 6 12 -5 6 -12 -8 -12
-6 0 8 7 9 9 17 4 17 -11 0 -11 59 0 76 3 6 3 14 -1 18 -11 12 -9 76 2 76 8 0
8 3 1 8 -12 8 -13 41 -2 59 4 6 4 14 -1 17 -10 6 -9 96 1 113 4 6 3 14 -1 17
-10 6 -10 46 1 63 4 6 3 14 -1 17 -10 6 -10 46 1 63 4 6 3 14 -1 17 -11 7 -9
46 2 65 7 11 6 12 -5 6 -12 -8 -12 -6 0 8 7 9 9 17 4 17 -11 0 -11 59 0 76 3
6 3 14 -1 18 -11 12 -9 76 2 76 8 0 8 3 1 8 -12 8 -13 41 -2 59 4 6 4 14 -1
17 -10 6 -9 96 1 113 4 6 3 14 -1 17 -10 6 -10 46 1 63 4 6 3 14 -1 17 -11 6
-10 46 1 64 5 6 4 12 0 12 -7 0 -12 35 -8 52 0 2 295 5 655 8 647 5 655 5 655
25 0 11 -3 25 -8 32 -4 6 -4 14 2 17 5 3 6 18 2 34 -5 19 -3 31 8 40 9 8 11
11 4 8 -8 -5 -11 3 -9 21 1 16 -1 33 -6 40 -5 6 -5 14 1 17 5 3 6 18 2 34 -5
19 -3 31 8 40 9 8 11 11 4 8 -8 -5 -11 3 -9 21 1 16 -1 33 -6 40 -5 6 -5 14 1
17 5 3 6 18 2 34 -5 19 -3 31 8 40 9 8 11 11 5 8 -7 -3 -11 9 -11 34 0 22 5
40 11 40 6 0 3 5 -7 11 -12 7 -15 15 -8 27 4 9 6 23 4 30 -3 6 1 12 9 12 9 1
8 4 -4 10 -9 6 -15 18 -13 28 2 9 4 19 4 22 1 3 6 -2 11 -10 6 -9 10 -10 10
-3 0 6 -5 15 -10 18 -6 4 -8 11 -5 16 4 5 2 9 -4 9 -7 0 -7 8 -1 25 6 16 6 26
-1 31 -7 4 -7 10 0 18 6 7 6 17 1 26 -6 10 -4 23 6 39 10 15 11 21 3 16 -9 -6
-11 -3 -6 8 3 9 2 19 -4 22 -5 4 -6 11 -3 17 4 6 10 5 15 -3 6 -10 9 -10 9 -2
0 6 -5 15 -10 18 -6 4 -8 11 -5 16 4 5 2 9 -4 9 -7 0 -7 8 -2 23 4 12 6 28 4
35 -3 6 1 12 9 12 8 0 7 4 -5 11 -12 7 -15 15 -8 27 4 9 6 23 4 30 -3 6 1 12
9 12 8 0 7 4 -5 11 -12 7 -15 15 -8 27 4 9 6 23 4 30 -3 6 1 12 9 12 8 0 7 4
-5 11 -13 8 -15 14 -7 30 8 14 8 21 -2 24 -7 3 -303 6 -658 8 l-644 2 -1 48
c-1 27 3 51 7 54 5 2 5 10 0 16 -10 15 -9 48 2 66 6 10 5 12 -2 7 -8 -5 -10
-2 -6 8 5 14 78 16 648 17 352 1 644 1 647 1 10 -2 17 58 7 64 -5 3 -5 10 -2
16 4 6 10 5 15 -3 6 -10 9 -10 9 -2 0 6 -5 15 -10 18 -6 4 -8 11 -5 16 4 5 2
9 -4 9 -7 0 -7 8 -2 23 4 12 6 28 4 35 -3 6 1 12 9 12 8 0 7 4 -5 11 -12 7
-15 15 -8 27 4 9 6 23 4 30 -3 6 1 12 9 12 8 0 7 4 -5 11 -13 8 -15 14 -7 29
7 13 7 21 0 25 -7 4 -7 11 -2 18 5 7 6 23 2 37 -4 17 -1 29 9 38 9 8 11 11 4
8 -8 -5 -11 3 -9 21 1 16 -1 33 -6 40 -5 6 -5 14 1 17 5 3 6 18 2 34 -5 19 -3
31 8 40 9 8 11 11 4 8 -8 -5 -11 3 -9 21 1 16 -1 33 -6 40 -5 6 -5 14 1 17 5
3 6 18 2 34 -5 19 -3 31 8 40 9 8 11 11 4 8 -8 -5 -11 3 -9 21 1 16 -1 33 -6
40 -5 6 -5 14 1 17 5 3 6 18 2 34 -5 19 -3 31 8 40 10 9 11 11 2 6 -11 -5 -13
-3 -8 9 3 9 2 19 -4 22 -5 4 -6 11 -3 17 4 6 10 5 15 -3 6 -10 9 -10 9 -2 0 6
-5 15 -10 18 -6 4 -8 11 -5 16 4 5 2 9 -4 9 -7 0 -7 8 -1 25 6 16 6 26 -1 31
-7 4 -7 10 0 18 6 7 6 17 1 26 -6 10 -4 23 6 39 10 15 11 21 3 16 -9 -6 -11
-3 -6 8 3 9 2 19 -4 22 -5 4 -6 11 -3 17 4 6 10 5 15 -3 6 -10 9 -10 9 -2 0 6
-5 15 -10 18 -6 4 -8 11 -5 16 4 5 2 9 -4 9 -7 0 -7 8 -2 23 4 12 6 28 4 35
-3 6 1 12 9 12 8 0 7 4 -5 11 -12 7 -15 15 -8 27 4 9 6 23 4 30 -3 6 1 12 8
12 8 0 5 6 -6 13 -14 11 -15 16 -5 22 10 6 9 9 -1 16 -11 7 -9 9 5 9 19 0 19
0 1 13 -11 9 -14 16 -7 20 5 4 8 16 5 27 -5 20 -14 20 -1413 20 -1229 0 -1409
-2 -1413 -15z"/>
</g>
</svg>
